Coordinates
version=1
nRows=60
nColumns=12
inDegrees=yes

Units are S.I. units (second, meters, Newtons, ...)
Angles are in degrees

endheader
time	SC_y	SC_z	SC_x	AC_y	AC_z	AC_x	GH_y	GH_z	GH_yy	EL_x	PS_y
       0.0              -29.26          3.262          53.79          66.85         0.7531          4.591         -105.6          37.95         -175.9          59.86          121.5
   0.02666              -29.27          3.263          53.78          66.85         0.7539           4.59         -105.5          37.96         -175.8          59.86          121.5
   0.05331              -29.27          3.265          53.78          66.84         0.7548          4.589         -105.5          37.96         -175.8          59.86          121.6
   0.07997              -29.27          3.267          53.78          66.84         0.7558          4.588         -105.5          37.97         -175.7          59.86          121.6
    0.1066              -29.28          3.269          53.77          66.84         0.7568          4.587         -105.4          37.98         -175.7          59.85          121.6
    0.1333              -29.28          3.271          53.77          66.84         0.7578          4.587         -105.4          37.99         -175.6          59.85          121.6
    0.1599              -29.29          3.273          53.76          66.83          0.759          4.586         -105.3           38.0         -175.5          59.85          121.6
    0.1866              -29.29          3.275          53.75          66.83         0.7602          4.584         -105.3          38.01         -175.5          59.85          121.6
    0.2133               -29.3          3.278          53.75          66.83         0.7615          4.583         -105.2          38.02         -175.4          59.85          121.6
    0.2399               -29.3           3.28          53.74          66.82         0.7629          4.582         -105.2          38.03         -175.3          59.84          121.6
    0.2666              -29.31          3.283          53.73          66.82         0.7644          4.581         -105.1          38.04         -175.2          59.84          121.6
    0.2932              -29.32          3.286          53.73          66.81          0.766          4.579         -105.0          38.06         -175.1          59.84          121.6
    0.3199              -29.32           3.29          53.72          66.81         0.7678          4.578         -105.0          38.07         -175.0          59.84          121.6
    0.3465              -29.33          3.293          53.71           66.8         0.7697          4.576         -104.9          38.09         -174.9          59.83          121.6
    0.3732              -29.34          3.297           53.7           66.8         0.7717          4.574         -104.8           38.1         -174.8          59.83          121.6
    0.3999              -29.35          3.301          53.69          66.79         0.7739          4.572         -104.7          38.12         -174.6          59.83          121.7
    0.4265              -29.36          3.306          53.68          66.79         0.7763           4.57         -104.6          38.14         -174.5          59.83          121.7
    0.4532              -29.37          3.311          53.66          66.78         0.7789          4.568         -104.5          38.17         -174.3          59.82          121.7
    0.4798              -29.38          3.317          53.65          66.77         0.7818          4.565         -104.4          38.19         -174.2          59.82          121.7
    0.5065              -29.39          3.323          53.63          66.76         0.7849          4.562         -104.2          38.22         -174.0          59.81          121.7
    0.5331              -29.41          3.329          53.62          66.75         0.7884          4.559         -104.1          38.24         -173.8          59.81          121.7
    0.5598              -29.42          3.336           53.6          66.74         0.7922          4.556         -103.9          38.28         -173.6           59.8          121.8
    0.5865              -29.44          3.344          53.58          66.73         0.7963          4.552         -103.7          38.31         -173.3           59.8          121.8
    0.6131              -29.46          3.353          53.55          66.72          0.801          4.548         -103.5          38.35         -173.0          59.79          121.8
    0.6398              -29.48          3.363          53.53           66.7         0.8061          4.543         -103.3          38.39         -172.7          59.78          121.8
    0.6664               -29.5          3.374           53.5          66.69         0.8119          4.538         -103.1          38.44         -172.4          59.77          121.9
    0.6931              -29.53          3.386          53.47          66.67         0.8183          4.533         -102.8          38.49         -172.0          59.76          121.9
    0.7197              -29.56            3.4          53.43          66.65         0.8255          4.526         -102.5          38.55         -171.6          59.75          121.9
    0.7464              -29.59          3.416          53.39          66.63         0.8337          4.519         -102.1          38.62         -171.1          59.74          122.0
    0.7731              -29.63          3.434          53.35           66.6          0.843           4.51         -101.7           38.7         -170.5          59.73          122.0
    0.7997              -29.68          3.454           53.3          66.57         0.8536          4.501         -101.3          38.79         -169.9          59.71          122.1
    0.8264              -29.73          3.477          53.24          66.54         0.8658           4.49         -100.8          38.89         -169.2          59.69          122.2
     0.853              -29.78          3.504          53.17           66.5         0.8798          4.478         -100.2          39.01         -168.4          59.67          122.2
    0.8797              -29.85          3.536          53.09          66.46         0.8962          4.463         -99.48          39.14         -167.4          59.65          122.3
    0.9063              -29.93          3.572           53.0           66.4         0.9153          4.446         -98.67           39.3         -166.3          59.62          122.4
     0.933              -30.02          3.615          52.89          66.34         0.9378          4.426         -97.71          39.49         -164.9          59.59          122.6
    0.9597              -30.13          3.666          52.76          66.27         0.9645          4.402         -96.57          39.71         -163.3          59.55          122.7
    0.9863              -30.26          3.728           52.6          66.18         0.9966          4.373          -95.2          39.98         -161.4           59.5          122.9
     1.013              -30.42          3.802          52.41          66.07          1.035          4.339         -93.55          40.31         -159.1          59.44          123.1
      1.04              -30.61          3.893          52.18          65.94          1.083          4.296         -91.53           40.7         -156.3          59.37          123.3
     1.066              -30.85          4.005          51.89          65.78          1.141          4.244         -89.03          41.19         -152.9          59.29          123.7
     1.093              -31.15          4.145          51.54          65.58          1.214          4.179         -85.92           41.8         -148.5          59.18          124.1
      1.12              -31.53          4.321          51.09          65.33          1.306          4.097          -82.0          42.57         -143.1          59.04          124.6
     1.146              -32.01          4.544          50.52           65.0          1.423          3.992         -77.02          43.54         -136.1          58.87          125.2
     1.173              -32.62          4.831          49.79          64.59          1.573          3.859         -70.65          44.79         -127.3          58.65          126.0
       1.2              -33.41          5.198          48.85          64.06          1.764          3.687         -62.47          46.39         -115.9          58.37          127.1
     1.226              -34.41          5.668          47.65          63.39           2.01          3.468         -52.02          48.44         -101.4          58.01          128.4
     1.253              -35.68          6.258          46.15          62.54          2.318          3.193         -38.88          51.01         -83.08          57.55          130.1
      1.28              -37.22          6.977          44.31           61.5          2.693          2.857         -22.87          54.15          -60.8           57.0          132.1
     1.306               -39.0          7.811          42.19           60.3          3.129          2.468         -4.316          57.78         -34.98          56.35          134.5
     1.333              -40.93          8.714          39.88          59.01            3.6          2.047          15.78          61.71         -7.023          55.66          137.1
      1.36              -42.86          9.616          37.58          57.71          4.072          1.626          35.87          65.65          20.94          54.96          139.6
     1.386              -44.65          10.45          35.45          56.51          4.507          1.237          54.43          69.28          46.76          54.32          142.0
     1.413              -46.19          11.17          33.62          55.47          4.883         0.9015          70.44          72.42          69.03          53.77          144.1
     1.439              -47.45          11.76          32.11          54.62          5.191         0.6261          83.58          74.99          87.31          53.31          145.7
     1.466              -48.46          12.23          30.92          53.95          5.436         0.4071          94.03          77.04          101.9          52.95          147.1
     1.493              -49.24           12.6          29.98          53.42          5.628         0.2356          102.2          78.64          113.2          52.67          148.1
     1.519              -49.86          12.88          29.25          53.01          5.778          0.102          108.6          79.89          122.1          52.45          148.9
     1.546              -50.33          13.11          28.68          52.68          5.894       -0.00233          113.6          80.86          129.0          52.27          149.6
     1.573              -50.71          13.28          28.23          52.43          5.986       -0.08444          117.5          81.63          134.5          52.14          150.1
